# xmcd
#
# Track frame offsets:
#	150
#	32417
#	73172
#	105375
#	127600
#	164387
#	191207
#	217062
#
# Disc length: 3563 seconds
#
# Revision: 0
# Processed by: cddbd v1.5.2PL0 Copyright (c) Steve Scherf et al.
# Submitted via: audiograbber 1.83.01
#
DISCID=6b0de908
DTITLE=James 'Blood' Ulme - Live at the Bayrischer Hof
DYEAR=1994
DGENRE=Blues
TTITLE0=Burning up
TTITLE1=Church
TTITLE2=Crying
TTITLE3=Let me take you home
TTITLE4=Boss lady
TTITLE5=Street bride
TTITLE6=Timeless
TTITLE7=Make it right
EXTD=YEAR: 1994
EXTT0=
EXTT1=
EXTT2=
EXTT3=
EXTT4=
EXTT5=
EXTT6=
EXTT7=
PLAYORDER=
